<svg id="Layer_1" data-name="Layer 1" xmlns="http://www.w3.org/2000/svg" viewBox="0 0 720.03 720.03"><title>sad_face</title><path d="M16.61-336C-182.47-336-344-174.77-344,24c0,198.32,161.43,359.91,359.65,360C214.23,384.12,376,222.66,376,24.22S214.67-336,16.61-336ZM16.2,337.52C-156.49,337-297.07,198.22-297.38,24.31c-.31-171.55,138-313.31,312.91-313.69,172.68-.38,313.34,139.07,313.94,313.28C330.06,196.08,189.63,336.57,16.2,337.52Z" transform="translate(344.02 336.01)"/><path d="M201.58,213.31c-2.67,10.06-9.5,16.07-19.59,17.52-9.75,1.41-17.71-2.58-23-10.94a163.29,163.29,0,0,0-50.87-51.44C29.06,117.91-78.1,141.6-126,221.8c-5.88,9.85-14.6,14.24-25.14,12.29-9.72-1.8-16-7.91-18.52-17.45-1.9-7.17.09-13.7,3.92-20,21.92-35.79,51.92-62.6,89.67-80.74C-46.65,101.81-15.53,95,25.47,94.7c68.4,3,129.67,34.18,172.51,99.12C202,199.83,203.43,206.32,201.58,213.31Z" transform="translate(344.02 336.01)"/><path d="M170.13-33.81C165-21.72,158-10.88,147.53-2.61,129.66,11.54,108.23,11,91.11-4.16,76.17-17.38,68.2-34.61,64-53.61c-2.29-10.33-3.11-21-4-27,.75-31.12,6-56.24,22.92-77.52,10.06-12.64,22.66-21.13,39.75-20.09,16.09,1,27.41,10.15,36.64,22.37,11.31,15,17,32.29,19.53,50.61C182.25-80.71,179.88-56.74,170.13-33.81Z" transform="translate(344.02 336.01)"/><path d="M-28.11-89c-.61,27.92-5.12,50.93-19.08,71A75.61,75.61,0,0,1-63.26-1.13c-16.1,12.2-35.2,11.68-51.2-.66-15.75-12.15-24.27-29-29-47.69-8.76-34.5-6.47-68,11.62-99.34a73.52,73.52,0,0,1,15.26-18.24c18.14-15.79,41-15,58.59,1.4,15.51,14.44,23.19,33,27.07,53.32C-29.23-103.4-28.72-94.22-28.11-89Z" transform="translate(344.02 336.01)"/></svg>