<svg id="Layer_1" data-name="Layer 1" xmlns="http://www.w3.org/2000/svg" viewBox="0 0 450.36 389.03"><title>share</title><path d="M699,455.78q-80.53-75.6-161.16-151.1c-6.72-6.3-14.41-8.32-23-4.62S502.56,310.77,502.61,320c.05,8.5,0,17,0,25.5v38.25c-2,.51-3.76,1-5.51,1.38-28.29,6.43-55.93,14.86-82.39,26.9-50.19,22.83-90,57.06-116.53,105.9-24.82,45.73-35.61,95.44-41.1,146.58-1.13,10.53,4.53,18.65,13.85,21.67s18.44-.36,24.06-9.36c15.9-25.46,37.12-45.63,61.83-62.31,34.45-23.26,72.47-37.72,113.18-45.3,10.55-2,21.29-3,32.58-4.49v6.37c0,17.82.07,35.65,0,53.48,0,9.25,3.75,16.28,12.29,19.93s16.2,1.74,23-4.62Q618.41,564.27,699,488.75C710,478.4,710.09,466.18,699,455.78ZM543.58,578.59c-.14-2.66-.3-4.23-.3-5.8,0-9.33.08-18.66,0-28-.17-13.06-8.83-21.22-22-21.14a341.6,341.6,0,0,0-119.54,22.55c-31.51,11.91-60.72,28-87.1,49-1.13.9-2.34,1.71-3.51,2.56l-1.06-.53c3.1-9.41,5.95-18.91,9.33-28.22,22.46-61.82,65.72-102.8,126.57-126.21,25.56-9.83,51.92-16.65,78.74-21.83,12.45-2.4,18.47-9.48,18.54-22.09,0-9.49,0-19,0-28.48,0-1.1.15-2.19.32-4.41L657,472.29Z" transform="translate(-256.95 -298.21)"/></svg>